<mxfile host="app.diagrams.net" agent="Mozilla/5.0 (Windows NT 10.0; Win64; x64) AppleWebKit/537.36 (KHTML, like Gecko) Chrome/128.0.0.0 Safari/537.36" version="24.7.8">
  <diagram id="C5RBs43oDa-KdzZeNtuy" name="Page-1">
    <mxGraphModel dx="1650" dy="704" grid="1" gridSize="10" guides="1" tooltips="1" connect="1" arrows="1" fold="1" page="1" pageScale="1" pageWidth="827" pageHeight="1169" math="0" shadow="0">
      <root>
        <mxCell id="WIyWlLk6GJQsqaUBKTNV-0" />
        <mxCell id="WIyWlLk6GJQsqaUBKTNV-1" parent="WIyWlLk6GJQsqaUBKTNV-0" />
        <mxCell id="WIyWlLk6GJQsqaUBKTNV-2" value="" style="rounded=0;html=1;jettySize=auto;orthogonalLoop=1;fontSize=11;endArrow=block;endFill=0;endSize=8;strokeWidth=1;shadow=0;labelBackgroundColor=none;edgeStyle=orthogonalEdgeStyle;" parent="WIyWlLk6GJQsqaUBKTNV-1" source="WIyWlLk6GJQsqaUBKTNV-3" target="WIyWlLk6GJQsqaUBKTNV-6" edge="1">
          <mxGeometry relative="1" as="geometry" />
        </mxCell>
        <mxCell id="WIyWlLk6GJQsqaUBKTNV-3" value="Welcome to the number guessing game" style="rounded=1;whiteSpace=wrap;html=1;fontSize=12;glass=0;strokeWidth=1;shadow=0;" parent="WIyWlLk6GJQsqaUBKTNV-1" vertex="1">
          <mxGeometry x="330" y="40" width="120" height="40" as="geometry" />
        </mxCell>
        <mxCell id="XN2gZozpxX8xo5aqIHgn-5" value="" style="edgeStyle=orthogonalEdgeStyle;rounded=0;orthogonalLoop=1;jettySize=auto;html=1;" edge="1" parent="WIyWlLk6GJQsqaUBKTNV-1" source="WIyWlLk6GJQsqaUBKTNV-6" target="XN2gZozpxX8xo5aqIHgn-4">
          <mxGeometry relative="1" as="geometry" />
        </mxCell>
        <mxCell id="WIyWlLk6GJQsqaUBKTNV-6" value="I am thinking&amp;nbsp;&lt;div&gt;about a number between&amp;nbsp;&lt;div&gt;1 and 100&lt;/div&gt;&lt;/div&gt;" style="rhombus;whiteSpace=wrap;html=1;shadow=0;fontFamily=Helvetica;fontSize=12;align=center;strokeWidth=1;spacing=6;spacingTop=-4;" parent="WIyWlLk6GJQsqaUBKTNV-1" vertex="1">
          <mxGeometry x="313.75" y="110" width="152.5" height="130" as="geometry" />
        </mxCell>
        <mxCell id="XN2gZozpxX8xo5aqIHgn-7" value="" style="edgeStyle=orthogonalEdgeStyle;rounded=0;orthogonalLoop=1;jettySize=auto;html=1;" edge="1" parent="WIyWlLk6GJQsqaUBKTNV-1" source="XN2gZozpxX8xo5aqIHgn-4" target="XN2gZozpxX8xo5aqIHgn-6">
          <mxGeometry relative="1" as="geometry" />
        </mxCell>
        <mxCell id="XN2gZozpxX8xo5aqIHgn-4" value="get a random number between 1 and 100" style="whiteSpace=wrap;html=1;shadow=0;strokeWidth=1;spacing=6;spacingTop=-4;" vertex="1" parent="WIyWlLk6GJQsqaUBKTNV-1">
          <mxGeometry x="330" y="280" width="120" height="60" as="geometry" />
        </mxCell>
        <mxCell id="XN2gZozpxX8xo5aqIHgn-9" value="" style="edgeStyle=orthogonalEdgeStyle;rounded=0;orthogonalLoop=1;jettySize=auto;html=1;" edge="1" parent="WIyWlLk6GJQsqaUBKTNV-1" source="XN2gZozpxX8xo5aqIHgn-6" target="XN2gZozpxX8xo5aqIHgn-8">
          <mxGeometry relative="1" as="geometry" />
        </mxCell>
        <mxCell id="XN2gZozpxX8xo5aqIHgn-11" value="" style="edgeStyle=orthogonalEdgeStyle;rounded=0;orthogonalLoop=1;jettySize=auto;html=1;" edge="1" parent="WIyWlLk6GJQsqaUBKTNV-1" source="XN2gZozpxX8xo5aqIHgn-6" target="XN2gZozpxX8xo5aqIHgn-10">
          <mxGeometry relative="1" as="geometry" />
        </mxCell>
        <mxCell id="XN2gZozpxX8xo5aqIHgn-6" value="Ask for level of difficulity easy or hard" style="whiteSpace=wrap;html=1;shadow=0;strokeWidth=1;spacing=6;spacingTop=-4;" vertex="1" parent="WIyWlLk6GJQsqaUBKTNV-1">
          <mxGeometry x="330" y="420" width="120" height="60" as="geometry" />
        </mxCell>
        <mxCell id="XN2gZozpxX8xo5aqIHgn-16" value="" style="edgeStyle=orthogonalEdgeStyle;rounded=0;orthogonalLoop=1;jettySize=auto;html=1;" edge="1" parent="WIyWlLk6GJQsqaUBKTNV-1" source="XN2gZozpxX8xo5aqIHgn-8" target="XN2gZozpxX8xo5aqIHgn-15">
          <mxGeometry relative="1" as="geometry" />
        </mxCell>
        <mxCell id="XN2gZozpxX8xo5aqIHgn-8" value="EASY" style="ellipse;whiteSpace=wrap;html=1;shadow=0;strokeWidth=1;spacing=6;spacingTop=-4;" vertex="1" parent="WIyWlLk6GJQsqaUBKTNV-1">
          <mxGeometry x="150" y="410" width="80" height="80" as="geometry" />
        </mxCell>
        <mxCell id="XN2gZozpxX8xo5aqIHgn-14" style="edgeStyle=orthogonalEdgeStyle;rounded=0;orthogonalLoop=1;jettySize=auto;html=1;exitX=1;exitY=0.5;exitDx=0;exitDy=0;" edge="1" parent="WIyWlLk6GJQsqaUBKTNV-1" source="XN2gZozpxX8xo5aqIHgn-10" target="XN2gZozpxX8xo5aqIHgn-12">
          <mxGeometry relative="1" as="geometry" />
        </mxCell>
        <mxCell id="XN2gZozpxX8xo5aqIHgn-10" value="HARD" style="ellipse;whiteSpace=wrap;html=1;shadow=0;strokeWidth=1;spacing=6;spacingTop=-4;" vertex="1" parent="WIyWlLk6GJQsqaUBKTNV-1">
          <mxGeometry x="550" y="410" width="80" height="80" as="geometry" />
        </mxCell>
        <mxCell id="XN2gZozpxX8xo5aqIHgn-48" style="edgeStyle=orthogonalEdgeStyle;rounded=0;orthogonalLoop=1;jettySize=auto;html=1;exitX=0.55;exitY=0.95;exitDx=0;exitDy=0;exitPerimeter=0;" edge="1" parent="WIyWlLk6GJQsqaUBKTNV-1" source="XN2gZozpxX8xo5aqIHgn-12" target="XN2gZozpxX8xo5aqIHgn-38">
          <mxGeometry relative="1" as="geometry" />
        </mxCell>
        <mxCell id="XN2gZozpxX8xo5aqIHgn-12" value="set guess&amp;nbsp;&lt;div&gt;attempts&amp;nbsp;&lt;div&gt;to 5&lt;/div&gt;&lt;/div&gt;" style="ellipse;shape=cloud;whiteSpace=wrap;html=1;shadow=0;strokeWidth=1;spacing=6;spacingTop=-4;" vertex="1" parent="WIyWlLk6GJQsqaUBKTNV-1">
          <mxGeometry x="690" y="410" width="120" height="80" as="geometry" />
        </mxCell>
        <mxCell id="XN2gZozpxX8xo5aqIHgn-18" value="" style="edgeStyle=orthogonalEdgeStyle;rounded=0;orthogonalLoop=1;jettySize=auto;html=1;" edge="1" parent="WIyWlLk6GJQsqaUBKTNV-1" source="XN2gZozpxX8xo5aqIHgn-15" target="XN2gZozpxX8xo5aqIHgn-17">
          <mxGeometry relative="1" as="geometry" />
        </mxCell>
        <mxCell id="XN2gZozpxX8xo5aqIHgn-15" value="set guess&amp;nbsp;&lt;div&gt;attempts&amp;nbsp;&lt;div&gt;to 10&lt;/div&gt;&lt;/div&gt;" style="ellipse;shape=cloud;whiteSpace=wrap;html=1;shadow=0;strokeWidth=1;spacing=6;spacingTop=-4;" vertex="1" parent="WIyWlLk6GJQsqaUBKTNV-1">
          <mxGeometry x="-30" y="410" width="120" height="80" as="geometry" />
        </mxCell>
        <mxCell id="XN2gZozpxX8xo5aqIHgn-26" value="" style="edgeStyle=orthogonalEdgeStyle;rounded=0;orthogonalLoop=1;jettySize=auto;html=1;" edge="1" parent="WIyWlLk6GJQsqaUBKTNV-1" source="XN2gZozpxX8xo5aqIHgn-17" target="XN2gZozpxX8xo5aqIHgn-25">
          <mxGeometry relative="1" as="geometry" />
        </mxCell>
        <mxCell id="XN2gZozpxX8xo5aqIHgn-30" value="" style="edgeStyle=orthogonalEdgeStyle;rounded=0;orthogonalLoop=1;jettySize=auto;html=1;" edge="1" parent="WIyWlLk6GJQsqaUBKTNV-1" source="XN2gZozpxX8xo5aqIHgn-17" target="XN2gZozpxX8xo5aqIHgn-29">
          <mxGeometry relative="1" as="geometry" />
        </mxCell>
        <mxCell id="XN2gZozpxX8xo5aqIHgn-17" value="WHILE USER GUESSING THE NUMBER&amp;nbsp;" style="shape=hexagon;perimeter=hexagonPerimeter2;whiteSpace=wrap;html=1;fixedSize=1;shadow=0;strokeWidth=1;spacing=6;spacingTop=-4;" vertex="1" parent="WIyWlLk6GJQsqaUBKTNV-1">
          <mxGeometry x="-30" y="570" width="120" height="80" as="geometry" />
        </mxCell>
        <mxCell id="XN2gZozpxX8xo5aqIHgn-28" value="" style="edgeStyle=orthogonalEdgeStyle;rounded=0;orthogonalLoop=1;jettySize=auto;html=1;" edge="1" parent="WIyWlLk6GJQsqaUBKTNV-1" source="XN2gZozpxX8xo5aqIHgn-25" target="XN2gZozpxX8xo5aqIHgn-27">
          <mxGeometry relative="1" as="geometry" />
        </mxCell>
        <mxCell id="XN2gZozpxX8xo5aqIHgn-25" value="CORRECT" style="shape=hexagon;perimeter=hexagonPerimeter2;whiteSpace=wrap;html=1;fixedSize=1;shadow=0;strokeWidth=1;spacing=6;spacingTop=-4;" vertex="1" parent="WIyWlLk6GJQsqaUBKTNV-1">
          <mxGeometry x="170" y="570" width="120" height="80" as="geometry" />
        </mxCell>
        <mxCell id="XN2gZozpxX8xo5aqIHgn-27" value="WON THE GAME" style="shape=hexagon;perimeter=hexagonPerimeter2;whiteSpace=wrap;html=1;fixedSize=1;shadow=0;strokeWidth=1;spacing=6;spacingTop=-4;" vertex="1" parent="WIyWlLk6GJQsqaUBKTNV-1">
          <mxGeometry x="170" y="730" width="120" height="80" as="geometry" />
        </mxCell>
        <mxCell id="XN2gZozpxX8xo5aqIHgn-33" value="" style="edgeStyle=orthogonalEdgeStyle;rounded=0;orthogonalLoop=1;jettySize=auto;html=1;" edge="1" parent="WIyWlLk6GJQsqaUBKTNV-1" source="XN2gZozpxX8xo5aqIHgn-29" target="XN2gZozpxX8xo5aqIHgn-32">
          <mxGeometry relative="1" as="geometry" />
        </mxCell>
        <mxCell id="XN2gZozpxX8xo5aqIHgn-29" value="FALSE&lt;div&gt;DECREASE ATTEMPT BY 1&lt;/div&gt;" style="shape=hexagon;perimeter=hexagonPerimeter2;whiteSpace=wrap;html=1;fixedSize=1;shadow=0;strokeWidth=1;spacing=6;spacingTop=-4;" vertex="1" parent="WIyWlLk6GJQsqaUBKTNV-1">
          <mxGeometry x="-230" y="570" width="120" height="80" as="geometry" />
        </mxCell>
        <mxCell id="XN2gZozpxX8xo5aqIHgn-31" style="edgeStyle=orthogonalEdgeStyle;rounded=0;orthogonalLoop=1;jettySize=auto;html=1;exitX=0.5;exitY=0;exitDx=0;exitDy=0;entryX=0.07;entryY=0.4;entryDx=0;entryDy=0;entryPerimeter=0;" edge="1" parent="WIyWlLk6GJQsqaUBKTNV-1" source="XN2gZozpxX8xo5aqIHgn-29" target="XN2gZozpxX8xo5aqIHgn-15">
          <mxGeometry relative="1" as="geometry">
            <Array as="points">
              <mxPoint x="-170" y="460" />
              <mxPoint x="-22" y="460" />
            </Array>
          </mxGeometry>
        </mxCell>
        <mxCell id="XN2gZozpxX8xo5aqIHgn-35" value="" style="edgeStyle=orthogonalEdgeStyle;rounded=0;orthogonalLoop=1;jettySize=auto;html=1;" edge="1" parent="WIyWlLk6GJQsqaUBKTNV-1" source="XN2gZozpxX8xo5aqIHgn-32" target="XN2gZozpxX8xo5aqIHgn-34">
          <mxGeometry relative="1" as="geometry" />
        </mxCell>
        <mxCell id="XN2gZozpxX8xo5aqIHgn-32" value="IF ATTEMPTS&lt;div&gt;IS 0&lt;/div&gt;" style="rhombus;whiteSpace=wrap;html=1;shadow=0;strokeWidth=1;spacing=6;spacingTop=-4;" vertex="1" parent="WIyWlLk6GJQsqaUBKTNV-1">
          <mxGeometry x="-410" y="570" width="80" height="80" as="geometry" />
        </mxCell>
        <mxCell id="XN2gZozpxX8xo5aqIHgn-34" value="LOST GAME" style="rhombus;whiteSpace=wrap;html=1;shadow=0;strokeWidth=1;spacing=6;spacingTop=-4;" vertex="1" parent="WIyWlLk6GJQsqaUBKTNV-1">
          <mxGeometry x="-410" y="730" width="80" height="80" as="geometry" />
        </mxCell>
        <mxCell id="XN2gZozpxX8xo5aqIHgn-36" value="" style="edgeStyle=orthogonalEdgeStyle;rounded=0;orthogonalLoop=1;jettySize=auto;html=1;" edge="1" parent="WIyWlLk6GJQsqaUBKTNV-1" source="XN2gZozpxX8xo5aqIHgn-38" target="XN2gZozpxX8xo5aqIHgn-40">
          <mxGeometry relative="1" as="geometry" />
        </mxCell>
        <mxCell id="XN2gZozpxX8xo5aqIHgn-37" value="" style="edgeStyle=orthogonalEdgeStyle;rounded=0;orthogonalLoop=1;jettySize=auto;html=1;" edge="1" parent="WIyWlLk6GJQsqaUBKTNV-1" source="XN2gZozpxX8xo5aqIHgn-38" target="XN2gZozpxX8xo5aqIHgn-43">
          <mxGeometry relative="1" as="geometry" />
        </mxCell>
        <mxCell id="XN2gZozpxX8xo5aqIHgn-38" value="WHILE USER GUESSING THE NUMBER&amp;nbsp;" style="shape=hexagon;perimeter=hexagonPerimeter2;whiteSpace=wrap;html=1;fixedSize=1;shadow=0;strokeWidth=1;spacing=6;spacingTop=-4;" vertex="1" parent="WIyWlLk6GJQsqaUBKTNV-1">
          <mxGeometry x="800" y="570" width="120" height="80" as="geometry" />
        </mxCell>
        <mxCell id="XN2gZozpxX8xo5aqIHgn-39" value="" style="edgeStyle=orthogonalEdgeStyle;rounded=0;orthogonalLoop=1;jettySize=auto;html=1;" edge="1" parent="WIyWlLk6GJQsqaUBKTNV-1" source="XN2gZozpxX8xo5aqIHgn-40" target="XN2gZozpxX8xo5aqIHgn-41">
          <mxGeometry relative="1" as="geometry" />
        </mxCell>
        <mxCell id="XN2gZozpxX8xo5aqIHgn-40" value="CORRECT" style="shape=hexagon;perimeter=hexagonPerimeter2;whiteSpace=wrap;html=1;fixedSize=1;shadow=0;strokeWidth=1;spacing=6;spacingTop=-4;" vertex="1" parent="WIyWlLk6GJQsqaUBKTNV-1">
          <mxGeometry x="1000" y="570" width="120" height="80" as="geometry" />
        </mxCell>
        <mxCell id="XN2gZozpxX8xo5aqIHgn-41" value="WON THE GAME" style="shape=hexagon;perimeter=hexagonPerimeter2;whiteSpace=wrap;html=1;fixedSize=1;shadow=0;strokeWidth=1;spacing=6;spacingTop=-4;" vertex="1" parent="WIyWlLk6GJQsqaUBKTNV-1">
          <mxGeometry x="1000" y="730" width="120" height="80" as="geometry" />
        </mxCell>
        <mxCell id="XN2gZozpxX8xo5aqIHgn-42" value="" style="edgeStyle=orthogonalEdgeStyle;rounded=0;orthogonalLoop=1;jettySize=auto;html=1;" edge="1" parent="WIyWlLk6GJQsqaUBKTNV-1" source="XN2gZozpxX8xo5aqIHgn-43" target="XN2gZozpxX8xo5aqIHgn-45">
          <mxGeometry relative="1" as="geometry" />
        </mxCell>
        <mxCell id="XN2gZozpxX8xo5aqIHgn-43" value="FALSE&lt;div&gt;DECREASE ATTEMPT BY 1&lt;/div&gt;" style="shape=hexagon;perimeter=hexagonPerimeter2;whiteSpace=wrap;html=1;fixedSize=1;shadow=0;strokeWidth=1;spacing=6;spacingTop=-4;" vertex="1" parent="WIyWlLk6GJQsqaUBKTNV-1">
          <mxGeometry x="600" y="570" width="120" height="80" as="geometry" />
        </mxCell>
        <mxCell id="XN2gZozpxX8xo5aqIHgn-44" value="" style="edgeStyle=orthogonalEdgeStyle;rounded=0;orthogonalLoop=1;jettySize=auto;html=1;" edge="1" parent="WIyWlLk6GJQsqaUBKTNV-1" source="XN2gZozpxX8xo5aqIHgn-45" target="XN2gZozpxX8xo5aqIHgn-46">
          <mxGeometry relative="1" as="geometry" />
        </mxCell>
        <mxCell id="XN2gZozpxX8xo5aqIHgn-45" value="IF ATTEMPTS&lt;div&gt;IS 0&lt;/div&gt;" style="rhombus;whiteSpace=wrap;html=1;shadow=0;strokeWidth=1;spacing=6;spacingTop=-4;" vertex="1" parent="WIyWlLk6GJQsqaUBKTNV-1">
          <mxGeometry x="420" y="570" width="80" height="80" as="geometry" />
        </mxCell>
        <mxCell id="XN2gZozpxX8xo5aqIHgn-46" value="LOST GAME" style="rhombus;whiteSpace=wrap;html=1;shadow=0;strokeWidth=1;spacing=6;spacingTop=-4;" vertex="1" parent="WIyWlLk6GJQsqaUBKTNV-1">
          <mxGeometry x="420" y="730" width="80" height="80" as="geometry" />
        </mxCell>
      </root>
    </mxGraphModel>
  </diagram>
</mxfile>
